<svg width="42" height="43" viewBox="0 0 42 43" fill="none" xmlns="http://www.w3.org/2000/svg">
<ellipse cx="21" cy="21.5" rx="21" ry="21.5" fill="black"/>
<g clip-path="url(#clip0_42_2)">
<path d="M29.0813 27.1199L32.3854 11.3079H36V8.82242H30.8059L30.027 12.5498L9 12.5315L11.2355 27.1198H29.0813V27.1199ZM29.5078 15.0348L27.5019 24.6345H12.9235L11.4501 15.019L29.5078 15.0348Z" fill="white"/>
<path d="M26.2975 36.1776C28.0907 36.1776 29.5495 34.3945 29.5495 32.2029C29.5495 30.0113 28.0907 28.2284 26.2975 28.2284H14.0454C12.2523 28.2284 10.7935 30.0113 10.7935 32.2029C10.7935 34.3945 12.2523 36.1776 14.0454 36.1776C15.8386 36.1776 17.2974 34.3945 17.2974 32.2029C17.2974 31.6766 17.213 31.174 17.0603 30.7138H23.2826C23.1299 31.174 23.0456 31.6766 23.0456 32.2029C23.0456 34.3945 24.5044 36.1776 26.2975 36.1776ZM15.2639 32.2029C15.2639 33.0241 14.7173 33.6922 14.0454 33.6922C13.3736 33.6922 12.827 33.0241 12.827 32.2029C12.827 31.3818 13.3736 30.7138 14.0454 30.7138C14.7173 30.7138 15.2639 31.3818 15.2639 32.2029ZM27.516 32.2029C27.516 33.0241 26.9694 33.6922 26.2976 33.6922C25.6257 33.6922 25.0792 33.0241 25.0792 32.2029C25.0792 31.3818 25.6257 30.7138 26.2976 30.7138C26.9694 30.7138 27.516 31.3818 27.516 32.2029Z" fill="white"/>
</g>
<defs>
<clipPath id="clip0_42_2">
<rect width="27" height="33" fill="white" transform="translate(9 6)"/>
</clipPath>
</defs>
</svg>
