<svg width="260" height="79" viewBox="0 0 260 79" fill="none" xmlns="http://www.w3.org/2000/svg">
<rect y="9" width="77" height="60" rx="7" fill="black"/>
<path d="M37.864 17.304C37.6933 17.816 37.4373 18.4133 37.096 19.096C36.7547 19.7787 36.2 20.184 35.432 20.312C34.9627 20.3547 34.5573 20.248 34.216 19.992C33.9173 19.6933 33.7467 19.3947 33.704 19.096C33.6613 18.7547 33.7467 18.584 33.96 18.584C34.1307 18.4987 34.2587 18.456 34.344 18.456C34.5573 18.456 34.7493 18.5627 34.92 18.776C35.0907 18.9467 35.3467 19.0107 35.688 18.968C36.1573 19.0107 36.4773 18.8613 36.648 18.52C36.8613 18.136 36.968 17.6667 36.968 17.112C36.968 16.7707 36.9253 16.3867 36.84 15.96C36.7973 15.5333 36.6907 15.1707 36.52 14.872C36.3067 14.4027 36.0293 14.168 35.688 14.168C35.2613 14.168 34.7707 14.488 34.216 15.128C33.6613 15.7253 33.1707 16.472 32.744 17.368C32.3173 18.2213 32.04 19.0533 31.912 19.864L29.736 34.008C30.12 34.0507 30.4187 34.1147 30.632 34.2C30.888 34.2427 31.1227 34.264 31.336 34.264C31.5493 34.264 31.848 34.2 32.232 34.072C34.3653 33.2187 35.752 32.1307 36.392 30.808C36.6053 30.5093 36.6907 30.5093 36.648 30.808C36.6053 31.064 36.4987 31.4053 36.328 31.832C36.2 32.2587 36.0293 32.5787 35.816 32.792C34.7493 34.072 33.7893 34.968 32.936 35.48C32.0827 35.992 31.3573 36.312 30.76 36.44C30.2053 36.568 29.7787 36.7387 29.48 36.952C29.3093 37.0373 29.224 37.2293 29.224 37.528C29.224 36.9733 29.2027 36.696 29.16 36.696C29.1173 36.696 29.0533 37.336 28.968 38.616C28.8827 39.896 28.84 41.4107 28.84 43.16C28.84 44.6107 28.8827 46.104 28.968 47.64C29.0533 49.1333 29.2027 50.52 29.416 51.8C29.6293 53.0373 29.928 54.0187 30.312 54.744C30.696 55.4267 31.1653 55.6827 31.72 55.512C32.616 55.0853 33.384 54.6587 34.024 54.232C34.664 53.7627 35.2187 53.0587 35.688 52.12C35.9013 51.6933 36.1147 51.288 36.328 50.904C36.5413 50.52 36.648 50.1147 36.648 49.688C36.648 49.3893 36.5413 49.0693 36.328 48.728C35.9013 48.088 35.4533 47.768 34.984 47.768C34.472 47.768 33.9813 48.0667 33.512 48.664C33.0427 49.2613 32.616 49.88 32.232 50.52C31.8907 51.1173 31.6133 51.4587 31.4 51.544C31.2293 51.6293 31.144 51.16 31.144 50.136C31.144 49.7093 31.2293 49.3253 31.4 48.984C31.5707 48.6427 31.784 48.3227 32.04 48.024C32.8507 47.0853 33.7253 46.616 34.664 46.616C34.8347 46.616 34.984 46.6373 35.112 46.68C35.24 46.68 35.3893 46.7013 35.56 46.744C36.1573 46.7867 36.5627 47.064 36.776 47.576C37.032 48.088 37.16 48.7067 37.16 49.432C37.16 49.6453 37.1387 49.88 37.096 50.136C37.096 50.392 37.0747 50.648 37.032 50.904C36.904 51.8853 36.456 52.9307 35.688 54.04C34.92 55.1067 34.0667 55.9813 33.128 56.664C32.1893 57.3893 31.3787 57.688 30.696 57.56C29.5867 57.3467 28.6907 56.728 28.008 55.704C27.368 54.68 26.92 53.3787 26.664 51.8C26.408 50.2213 26.28 48.5147 26.28 46.68C26.28 45.2293 26.344 43.7573 26.472 42.264C26.6 40.728 26.7493 39.256 26.92 37.848L22.184 37.528C21.9707 37.5707 21.7147 37.592 21.416 37.592C21.032 37.592 20.712 37.5707 20.456 37.528C20.2 37.4427 19.9227 37.4 19.624 37.4C19.368 37.4 19.0693 37.4427 18.728 37.528C18.4293 37.6133 18.024 37.784 17.512 38.04L14.312 53.464C14.1413 54.4027 13.8 55.4053 13.288 56.472C12.776 57.5813 12.1573 58.584 11.432 59.48C10.7067 60.4187 9.896 61.144 9 61.656C8.14667 62.168 7.25067 62.3387 6.312 62.168C5.24533 61.9547 4.30667 61.5067 3.496 60.824C2.68533 60.1413 2.04533 59.3733 1.576 58.52C1.23467 57.5387 1.04267 56.6 1 55.704C0.914667 54.808 0.872 54.232 0.872 53.976C1.04267 53.1653 1.42667 52.2693 2.024 51.288C2.62133 50.264 3.34667 49.4107 4.2 48.728C5.05333 48.0027 5.928 47.7253 6.824 47.896C7.93333 48.0667 8.70133 48.5147 9.128 49.24C9.59733 49.9653 9.91733 50.7973 10.088 51.736C10.1733 52.0347 10.2373 52.3333 10.28 52.632C10.3227 52.9307 10.344 53.2293 10.344 53.528C10.344 53.8693 10.28 54.2107 10.152 54.552C10.024 54.8507 9.768 55.1067 9.384 55.32C9.08533 55.5333 8.63733 55.64 8.04 55.64C7.35733 55.64 6.73867 55.4693 6.184 55.128C5.672 54.8293 5.544 54.4667 5.8 54.04C5.928 53.784 6.12 53.656 6.376 53.656C6.67467 53.656 6.99467 53.7413 7.336 53.912C7.67733 54.04 7.99733 54.104 8.296 54.104C8.59467 54.104 8.82933 54.0187 9 53.848C9.128 53.6347 9.192 53.4213 9.192 53.208C9.192 52.4827 8.89333 51.672 8.296 50.776C7.74133 49.8373 7.05867 49.304 6.248 49.176C5.992 49.1333 5.56533 49.304 4.968 49.688C4.41333 50.072 3.85867 50.6267 3.304 51.352C2.792 52.0773 2.408 52.9733 2.152 54.04C2.10933 54.808 2.152 55.5333 2.28 56.216C2.45067 56.8987 2.68533 57.5387 2.984 58.136C3.32533 58.8613 3.79467 59.224 4.392 59.224C4.98933 59.2667 5.65067 59.3733 6.376 59.544C6.58933 59.5867 6.78133 59.608 6.952 59.608C7.16533 59.6507 7.35733 59.672 7.528 59.672C8.936 59.672 9.96 59.096 10.6 57.944C11.2827 56.792 11.7733 55.2987 12.072 53.464L14.824 38.488C13.7573 39.128 13.1173 39.576 12.904 39.832C12.6907 40.088 12.4133 40.344 12.072 40.6C11.9013 40.6853 11.7947 40.728 11.752 40.728C11.5387 40.728 11.432 40.5573 11.432 40.216C11.432 40.0027 11.4747 39.768 11.56 39.512C11.9013 38.4027 12.4347 37.592 13.16 37.08C13.8853 36.5253 14.4827 35.9493 14.952 35.352C15.336 34.8827 15.528 34.328 15.528 33.688C15.656 33.176 15.72 32.4933 15.72 31.64C15.72 30.5307 15.592 29.272 15.336 27.864C15.1227 26.4133 14.76 25.0053 14.248 23.64C13.7787 22.2747 13.1387 21.1227 12.328 20.184C11.5173 19.2027 10.536 18.6053 9.384 18.392C9.128 18.3493 8.872 18.328 8.616 18.328C8.40267 18.2853 8.18933 18.264 7.976 18.264C7.208 18.264 6.54667 18.392 5.992 18.648C5.48 18.8613 5.224 19.2027 5.224 19.672C5.224 20.0987 5.33067 20.3973 5.544 20.568C5.75733 20.696 6.01333 20.76 6.312 20.76C6.61067 20.76 6.90933 20.7387 7.208 20.696C7.50667 20.6107 7.784 20.568 8.04 20.568C8.46667 20.568 8.68 20.76 8.68 21.144C8.68 21.5707 8.488 21.8693 8.104 22.04C7.76267 22.2107 7.35733 22.296 6.888 22.296C6.248 22.296 5.672 22.1467 5.16 21.848C4.52 21.3787 4.2 20.8027 4.2 20.12C4.2 18.2427 4.66933 16.8987 5.608 16.088C6.58933 15.2773 7.80533 14.872 9.256 14.872C11.5173 14.872 13.3947 15.6613 14.888 17.24C16.3813 18.776 17.2133 20.7387 17.384 23.128C17.4267 23.7253 17.512 24.9627 17.64 26.84C17.8107 28.6747 17.896 30.616 17.896 32.664C17.896 33.048 17.896 33.4533 17.896 33.88C17.896 34.264 17.8747 34.648 17.832 35.032L27.368 34.968C27.4533 34.6693 27.56 33.944 27.688 32.792C27.8587 31.64 28.072 30.2533 28.328 28.632C28.584 27.0107 28.9253 25.3253 29.352 23.576C29.7787 21.8267 30.2693 20.184 30.824 18.648C31.4213 17.112 32.104 15.8747 32.872 14.936C33.64 13.9547 34.5147 13.464 35.496 13.464C36.136 13.464 36.6907 13.6773 37.16 14.104C37.672 14.488 37.928 15.192 37.928 16.216C37.928 16.3867 37.928 16.5573 37.928 16.728C37.928 16.8987 37.9067 17.0907 37.864 17.304ZM78.3915 26.008C78.3915 28.5253 77.9435 30.7867 77.0475 32.792C76.1942 34.7547 75.0848 36.4827 73.7195 37.976C72.3968 39.4693 71.0102 40.792 69.5595 41.944C67.8528 43.2667 65.7195 43.928 63.1595 43.928C62.3488 43.928 61.7728 43.9067 61.4315 43.864C61.0902 43.7787 60.8555 43.608 60.7275 43.352C60.5995 43.096 60.4288 42.648 60.2155 42.008C60.1728 41.88 60.1515 41.688 60.1515 41.432C60.1515 41.0907 60.2155 40.8347 60.3435 40.664C60.5142 40.4933 60.6848 40.5787 60.8555 40.92C61.0688 41.4747 61.3248 41.8587 61.6235 42.072C61.9222 42.2427 62.4342 42.328 63.1595 42.328C64.2688 42.328 65.1648 42.1147 65.8475 41.688C66.5728 41.2187 67.2768 40.728 67.9595 40.216C69.3248 39.192 70.6048 38.0187 71.7995 36.696C73.0368 35.3307 74.0395 33.752 74.8075 31.96C75.5755 30.168 75.9595 28.12 75.9595 25.816C75.9595 24.1947 75.5542 22.8293 74.7435 21.72C73.9328 20.6107 72.8448 19.736 71.4795 19.096C70.1142 18.4133 68.6208 17.9227 66.9995 17.624C65.3782 17.3253 63.7568 17.176 62.1355 17.176C61.4528 17.176 60.7488 17.2187 60.0235 17.304C59.3408 17.3893 58.6795 17.4747 58.0395 17.56C55.8635 17.7307 54.0928 17.9653 52.7275 18.264C51.4048 18.5627 50.2742 19.032 49.3355 19.672C48.3968 20.2693 47.4582 21.144 46.5195 22.296C46.0075 22.8933 45.6875 23.7893 45.5595 24.984C45.4315 26.1787 45.3675 27.2667 45.3675 28.248C45.3675 30.0827 45.5595 31.4693 45.9435 32.408C46.3275 33.3467 47.3088 33.816 48.8875 33.816C49.4848 33.816 50.2315 33.624 51.1275 33.24C52.0235 32.8133 52.8982 32.3013 53.7515 31.704C54.6475 31.064 55.3088 30.4027 55.7355 29.72C56.0342 29.2507 56.3755 29.016 56.7595 29.016C57.0582 29.016 57.2075 29.2293 57.2075 29.656C57.2075 29.9973 57.0582 30.5307 56.7595 31.256C56.6315 31.5547 56.2475 31.9387 55.6075 32.408C55.0102 32.8773 54.2848 33.3467 53.4315 33.816C52.5782 34.2427 51.7248 34.6053 50.8715 34.904C50.0608 35.2027 49.3995 35.352 48.8875 35.352C47.5648 35.352 46.3915 34.968 45.3675 34.2C44.3435 33.432 43.5328 32.408 42.9355 31.128C42.3808 29.848 42.1035 28.4613 42.1035 26.968C42.1035 25.688 42.4875 24.6213 43.2555 23.768C44.0235 22.872 44.6848 22.0827 45.2395 21.4C46.8182 19.5227 48.6955 18.0293 50.8715 16.92C53.0902 15.8107 55.9488 15.128 59.4475 14.872C60.1728 14.7867 60.8768 14.7227 61.5595 14.68C62.2422 14.6373 62.9248 14.616 63.6075 14.616C66.1248 14.616 68.4928 15.064 70.7115 15.96C72.9728 16.8133 74.8075 18.0933 76.2155 19.8C77.6662 21.464 78.3915 23.5333 78.3915 26.008ZM66.4235 18.904C66.4662 18.904 66.5088 18.904 66.5515 18.904C66.5942 18.8613 66.6368 18.84 66.6795 18.84C66.8928 18.84 66.9995 18.9467 66.9995 19.16C66.9995 19.5867 66.7008 19.9067 66.1035 20.12C64.6955 20.4613 63.6928 21.0373 63.0955 21.848C62.5408 22.616 62.0288 23.6613 61.5595 24.984C60.9195 26.8613 60.4715 28.6107 60.2155 30.232C59.9595 31.8107 59.7888 33.432 59.7035 35.096C59.6182 36.76 59.4902 38.6587 59.3195 40.792C59.1488 43.1813 58.7648 45.5493 58.1675 47.896C57.6128 50.2427 56.8022 52.376 55.7355 54.296C54.6688 56.1733 53.3035 57.688 51.6395 58.84C49.9755 59.992 47.9488 60.568 45.5595 60.568C44.1515 60.568 42.8288 60.056 41.5915 59.032C40.3542 58.008 39.3515 56.7067 38.5835 55.128C37.8582 53.592 37.4955 52.0773 37.4955 50.584C37.4955 49.3467 37.7515 48.3013 38.2635 47.448C38.7755 46.552 39.2022 45.6987 39.5435 44.888C40.2688 43.736 41.0795 42.6267 41.9755 41.56C42.9142 40.4507 44.0022 39.5547 45.2395 38.872C46.4768 38.1467 47.9062 37.784 49.5275 37.784C51.5328 37.784 52.8768 38.3173 53.5595 39.384C54.2422 40.4507 54.5835 41.9227 54.5835 43.8C54.5835 46.0187 53.9648 47.7253 52.7275 48.92C51.4902 50.1147 49.7408 50.712 47.4795 50.712C46.7968 50.712 46.2208 50.4987 45.7515 50.072C45.2822 49.6027 45.0475 49.0053 45.0475 48.28C45.0475 47.6827 45.1968 47.2773 45.4955 47.064C45.8368 46.8507 46.1782 46.6587 46.5195 46.488C46.6048 46.4453 46.7115 46.424 46.8395 46.424C47.0528 46.424 47.2448 46.5307 47.4155 46.744C47.5862 46.9147 47.6715 47.1067 47.6715 47.32C47.6715 47.6187 47.5222 47.7893 47.2235 47.832C47.0955 47.8747 46.9462 47.9173 46.7755 47.96C46.6048 47.96 46.5195 48.0667 46.5195 48.28C46.5195 48.8773 46.8395 49.176 47.4795 49.176C51.1915 49.176 53.0475 47.384 53.0475 43.8C53.0475 42.4773 52.8342 41.4107 52.4075 40.6C51.9808 39.7467 51.0208 39.32 49.5275 39.32C48.1195 39.32 46.8822 39.64 45.8155 40.28C44.7488 40.92 43.8315 41.7307 43.0635 42.712C42.2955 43.6933 41.6128 44.696 41.0155 45.72C40.5888 46.4027 40.1622 47.1067 39.7355 47.832C39.3088 48.5573 39.0955 49.4747 39.0955 50.584C39.0955 51.8213 39.2875 53.1013 39.6715 54.424C40.0982 55.704 40.7168 56.792 41.5275 57.688C42.3382 58.584 43.2982 59.032 44.4075 59.032C46.6262 59.032 48.4608 58.52 49.9115 57.496C51.4048 56.472 52.5782 55.1067 53.4315 53.4C54.2848 51.6933 54.9248 49.7733 55.3515 47.64C55.8208 45.464 56.1408 43.2667 56.3115 41.048C56.5675 37.848 56.9728 34.9893 57.5275 32.472C58.1248 29.9547 58.9142 27.2667 59.8955 24.408C60.4502 22.7867 61.2395 21.5707 62.2635 20.76C63.3302 19.9493 64.7168 19.3307 66.4235 18.904Z" fill="white"/>
<path d="M121.144 51C120.544 51.12 120.124 50.832 119.884 50.136C119.644 49.416 119.512 48.36 119.488 46.968C119.44 44.928 119.368 43.224 119.272 41.856C119.2 40.464 119.056 39.216 118.84 38.112C116.608 39.168 114.4 40.14 112.216 41.028C110.056 41.892 108.976 42.312 108.976 42.288L109.048 49.956C109.048 50.316 108.832 50.544 108.4 50.64C107.824 50.76 107.44 50.436 107.248 49.668C107.08 48.876 106.96 47.64 106.888 45.96C106.84 44.448 106.768 43.38 106.672 42.756C106 43.092 105.424 43.248 104.944 43.224C104.848 43.032 104.8 42.636 104.8 42.036C104.992 41.964 105.22 41.88 105.484 41.784C105.772 41.688 105.976 41.58 106.096 41.46C106.24 41.316 106.312 41.112 106.312 40.848C106.312 39.648 106.192 37.8 105.952 35.304C105.688 33.048 105.556 31.188 105.556 29.724L105.592 28.068C105.664 27.9 105.748 27.792 105.844 27.744C105.964 27.696 106.12 27.672 106.312 27.672C106.72 27.672 106.924 27.804 106.924 28.068L108.4 40.74C109.072 40.572 110.188 40.14 111.748 39.444C113.308 38.748 115.708 37.62 118.948 36.06L119.092 28.068C119.092 27.132 119.44 26.664 120.136 26.664C120.424 26.664 120.616 26.772 120.712 26.988C120.832 27.204 120.868 27.564 120.82 28.068L120.784 34.296C120.784 36.408 120.904 39.156 121.144 42.54C121.216 43.212 121.276 43.86 121.324 44.484C121.396 45.084 121.456 45.66 121.504 46.212C121.648 47.7 121.744 48.648 121.792 49.056C121.864 49.44 121.972 49.788 122.116 50.1C121.996 50.58 121.672 50.88 121.144 51ZM134.61 51C132.114 51 129.942 50.568 128.094 49.704C126.27 48.816 125.358 47.268 125.358 45.06C125.358 44.268 125.598 43.5 126.078 42.756C126.558 42.012 127.266 41.412 128.202 40.956C129.138 40.476 130.278 40.236 131.622 40.236C132.654 40.236 133.53 40.284 134.25 40.38C134.97 40.476 135.798 40.74 136.734 41.172C137.67 41.604 138.642 42.288 139.65 43.224C139.266 41.568 138.69 40.116 137.922 38.868C137.154 37.62 136.29 36.66 135.33 35.988C134.394 35.292 133.47 34.944 132.558 34.944C132.126 34.944 131.718 35.028 131.334 35.196C130.974 35.34 130.53 35.556 130.002 35.844C129.402 36.228 128.958 36.42 128.67 36.42C128.55 36.42 128.442 36.384 128.346 36.312C128.274 36.216 128.238 36.108 128.238 35.988C128.238 35.028 128.658 34.284 129.498 33.756C130.362 33.228 131.406 32.988 132.63 33.036C134.31 33.132 135.846 33.852 137.238 35.196C138.63 36.516 139.722 38.16 140.514 40.128C141.33 42.096 141.738 44.028 141.738 45.924C141.738 46.236 141.714 46.68 141.666 47.256L140.514 47.184C139.602 45.336 138.426 44.028 136.986 43.26C135.57 42.468 134.142 42.072 132.702 42.072C130.854 42.072 129.534 42.348 128.742 42.9C127.95 43.452 127.554 44.256 127.554 45.312C127.554 46.416 128.106 47.304 129.21 47.976C130.314 48.648 131.73 48.984 133.458 48.984C134.418 48.984 135.186 48.936 135.762 48.84C136.338 48.72 136.938 48.564 137.562 48.372C138.066 48.204 138.51 48.084 138.894 48.012C139.278 47.94 139.77 47.904 140.37 47.904C141.042 47.904 141.462 47.952 141.63 48.048C141.822 48.144 141.918 48.36 141.918 48.696C141.918 48.936 141.426 49.236 140.442 49.596C139.458 49.956 138.354 50.28 137.13 50.568C135.906 50.856 135.066 51 134.61 51ZM149.047 63.816C148.567 63.816 147.991 62.532 147.319 59.964C146.671 57.396 146.083 54.54 145.555 51.396C145.051 48.276 144.799 46.308 144.799 45.492C144.799 43.068 145.615 41.304 147.247 40.2C148.879 39.072 150.979 38.508 153.547 38.508C154.915 38.508 156.211 38.796 157.435 39.372C158.659 39.924 159.643 40.728 160.387 41.784C161.131 42.816 161.503 44.016 161.503 45.384C161.503 47.088 160.903 48.288 159.703 48.984C158.527 49.68 157.039 50.028 155.239 50.028C153.367 50.028 151.771 49.716 150.451 49.092C149.155 48.444 148.507 47.568 148.507 46.464L148.543 46.104C148.711 45.912 148.891 45.816 149.083 45.816C149.251 45.816 149.431 45.888 149.623 46.032C149.839 46.152 150.067 46.296 150.307 46.464C151.051 47.016 151.783 47.46 152.503 47.796C153.247 48.132 154.171 48.3 155.275 48.3C156.787 48.3 157.855 48.036 158.479 47.508C159.127 46.956 159.451 46.092 159.451 44.916C159.451 44.052 159.163 43.284 158.587 42.612C158.011 41.94 157.267 41.424 156.355 41.064C155.443 40.704 154.507 40.524 153.547 40.524C151.315 40.524 149.635 41.004 148.507 41.964C147.379 42.9 146.875 44.472 146.995 46.68C147.211 50.424 147.547 53.568 148.003 56.112C148.483 58.656 149.311 60.816 150.487 62.592L150.523 62.664C150.523 62.712 150.463 62.76 150.343 62.808C150.247 62.88 150.175 62.94 150.127 62.988C149.839 63.444 149.479 63.72 149.047 63.816ZM168.629 63.816C168.149 63.816 167.573 62.532 166.901 59.964C166.253 57.396 165.665 54.54 165.137 51.396C164.633 48.276 164.381 46.308 164.381 45.492C164.381 43.068 165.197 41.304 166.829 40.2C168.461 39.072 170.561 38.508 173.129 38.508C174.497 38.508 175.793 38.796 177.017 39.372C178.241 39.924 179.225 40.728 179.969 41.784C180.713 42.816 181.085 44.016 181.085 45.384C181.085 47.088 180.485 48.288 179.285 48.984C178.109 49.68 176.621 50.028 174.821 50.028C172.949 50.028 171.353 49.716 170.033 49.092C168.737 48.444 168.089 47.568 168.089 46.464L168.125 46.104C168.293 45.912 168.473 45.816 168.665 45.816C168.833 45.816 169.013 45.888 169.205 46.032C169.421 46.152 169.649 46.296 169.889 46.464C170.633 47.016 171.365 47.46 172.085 47.796C172.829 48.132 173.753 48.3 174.857 48.3C176.369 48.3 177.437 48.036 178.061 47.508C178.709 46.956 179.033 46.092 179.033 44.916C179.033 44.052 178.745 43.284 178.169 42.612C177.593 41.94 176.849 41.424 175.937 41.064C175.025 40.704 174.089 40.524 173.129 40.524C170.897 40.524 169.217 41.004 168.089 41.964C166.961 42.9 166.457 44.472 166.577 46.68C166.793 50.424 167.129 53.568 167.585 56.112C168.065 58.656 168.893 60.816 170.069 62.592L170.105 62.664C170.105 62.712 170.045 62.76 169.925 62.808C169.829 62.88 169.757 62.94 169.709 62.988C169.421 63.444 169.061 63.72 168.629 63.816ZM193.827 68.028C192.195 68.028 190.731 67.68 189.435 66.984C188.163 66.288 187.143 65.484 186.375 64.572C185.607 63.66 185.175 62.916 185.079 62.34C184.983 61.812 185.103 61.404 185.439 61.116C185.799 60.828 186.243 60.708 186.771 60.756C187.515 62.532 188.403 63.9 189.435 64.86C190.467 65.82 191.943 66.324 193.863 66.372C195.207 66.396 196.275 65.532 197.067 63.78C197.883 62.052 198.459 59.928 198.795 57.408C199.131 54.912 199.299 52.452 199.299 50.028C199.299 48.78 199.263 47.76 199.191 46.968C197.367 49.2 195.039 50.316 192.207 50.316C189.759 50.316 187.875 49.152 186.555 46.824C185.259 44.496 184.419 41.868 184.035 38.94C183.987 38.652 183.963 38.244 183.963 37.716C183.963 36.204 184.455 35.448 185.439 35.448C185.535 35.448 185.667 36.048 185.835 37.248C186.099 39.144 186.423 40.848 186.807 42.36C187.191 43.872 187.827 45.252 188.715 46.5C189.627 47.724 190.827 48.336 192.315 48.336C193.491 48.336 194.691 47.952 195.915 47.184C197.163 46.392 198.063 45.516 198.615 44.556C198.615 42.732 198.375 41.1 197.895 39.66C197.439 38.196 197.199 37.416 197.175 37.32C197.127 36.792 197.103 36.456 197.103 36.312C197.103 35.832 197.175 35.484 197.319 35.268C197.487 35.052 197.727 34.944 198.039 34.944C198.375 34.944 198.759 35.628 199.191 36.996C199.623 38.364 200.007 40.152 200.343 42.36C200.679 44.568 200.907 46.872 201.027 49.272C201.075 50.52 201.099 51.444 201.099 52.044C201.099 56.652 200.523 60.468 199.371 63.492C198.243 66.516 196.395 68.028 193.827 68.028ZM217.215 63.816C216.735 63.816 216.159 62.532 215.487 59.964C214.839 57.396 214.251 54.54 213.723 51.396C213.219 48.276 212.967 46.308 212.967 45.492C212.967 43.068 213.783 41.304 215.415 40.2C217.047 39.072 219.147 38.508 221.715 38.508C223.083 38.508 224.379 38.796 225.603 39.372C226.827 39.924 227.811 40.728 228.555 41.784C229.299 42.816 229.671 44.016 229.671 45.384C229.671 47.088 229.071 48.288 227.871 48.984C226.695 49.68 225.207 50.028 223.407 50.028C221.535 50.028 219.939 49.716 218.619 49.092C217.323 48.444 216.675 47.568 216.675 46.464L216.711 46.104C216.879 45.912 217.059 45.816 217.251 45.816C217.419 45.816 217.599 45.888 217.791 46.032C218.007 46.152 218.235 46.296 218.475 46.464C219.219 47.016 219.951 47.46 220.671 47.796C221.415 48.132 222.339 48.3 223.443 48.3C224.955 48.3 226.023 48.036 226.647 47.508C227.295 46.956 227.619 46.092 227.619 44.916C227.619 44.052 227.331 43.284 226.755 42.612C226.179 41.94 225.435 41.424 224.523 41.064C223.611 40.704 222.675 40.524 221.715 40.524C219.483 40.524 217.803 41.004 216.675 41.964C215.547 42.9 215.043 44.472 215.163 46.68C215.379 50.424 215.715 53.568 216.171 56.112C216.651 58.656 217.479 60.816 218.655 62.592L218.691 62.664C218.691 62.712 218.631 62.76 218.511 62.808C218.415 62.88 218.343 62.94 218.295 62.988C218.007 63.444 217.647 63.72 217.215 63.816ZM241.045 51C239.509 51 238.093 50.7 236.797 50.1C235.501 49.5 234.469 48.648 233.701 47.544C232.933 46.44 232.549 45.168 232.549 43.728C232.549 42.12 232.849 40.62 233.449 39.228C234.049 37.812 234.925 36.684 236.077 35.844C237.253 34.98 238.621 34.548 240.181 34.548C241.813 34.548 243.049 35.076 243.889 36.132C244.729 37.164 245.125 38.472 245.077 40.056C245.077 41.472 244.513 42.552 243.385 43.296C242.281 44.04 240.865 44.412 239.137 44.412C238.873 44.412 238.477 44.388 237.949 44.34C237.085 44.244 236.473 44.112 236.113 43.944C235.753 43.776 235.573 43.44 235.573 42.936C235.573 42.768 235.621 42.648 235.717 42.576C235.813 42.48 236.005 42.432 236.293 42.432C236.605 42.432 237.157 42.504 237.949 42.648C238.717 42.792 239.401 42.864 240.001 42.864C242.209 42.864 243.313 41.904 243.313 39.984C243.313 38.832 243.097 37.92 242.665 37.248C242.257 36.576 241.525 36.24 240.469 36.24C239.317 36.24 238.285 36.552 237.373 37.176C236.461 37.776 235.753 38.568 235.249 39.552C234.769 40.536 234.529 41.58 234.529 42.684C234.529 44.58 235.057 46.14 236.113 47.364C237.169 48.564 238.801 49.164 241.009 49.164C241.273 49.164 241.717 49.14 242.341 49.092C242.605 49.068 242.929 48.996 243.313 48.876C243.697 48.756 243.973 48.672 244.141 48.624C245.173 48.264 245.929 48.084 246.409 48.084C246.769 48.084 247.045 48.18 247.237 48.372C246.637 49.284 245.737 49.956 244.537 50.388C243.361 50.796 242.197 51 241.045 51ZM254.482 51C254.242 51.048 254.086 51.072 254.014 51.072C253.27 51.072 252.754 50.52 252.466 49.416C252.202 48.312 252.07 46.764 252.07 44.772C252.07 43.956 252.094 42.684 252.142 40.956C252.19 39.9 252.214 39.108 252.214 38.58C249.262 38.58 247.786 38.244 247.786 37.572C247.786 37.356 247.81 37.188 247.858 37.068C247.93 36.948 248.074 36.888 248.29 36.888L252.214 36.636C252.19 35.46 252.13 34.176 252.034 32.784C251.938 31.536 251.878 30.384 251.854 29.328C251.854 29.064 251.962 28.884 252.178 28.788C252.394 28.668 252.622 28.608 252.862 28.608C253.15 28.608 253.39 28.764 253.582 29.076C253.774 29.364 253.87 29.664 253.87 29.976L254.122 36.564L257.11 36.708C257.566 36.66 257.95 36.744 258.262 36.96C258.598 37.176 258.778 37.536 258.802 38.04C258.298 38.256 257.746 38.388 257.146 38.436C256.546 38.484 255.538 38.508 254.122 38.508C254.122 40.74 254.23 44.412 254.446 49.524C254.446 50.052 254.446 50.424 254.446 50.64C254.47 50.832 254.482 50.952 254.482 51Z" fill="black"/>
</svg>
